<svg xmlns="http://www.w3.org/2000/svg" enable-background="new 0 0 69 69" viewBox="0 0 69 69"><path d="M2.76045,41.8051c-0.00537,0.03467-0.00214,0.06927-0.00256,0.1048c-0.00043,0.06042,0.00232,0.11877,0.01593,0.17633
		c0.00354,0.01532-0.00037,0.0304,0.00415,0.04572c1.34527,4.50607,13.07416,7.155,18.51172,7.19336
		c2.87793,0.01953,5.83203,0.06055,8.78613,0.10156c4.24512,0.05859,8.4209,0.11621,12.35938,0.11621
		c30.57405,0,24.194-3.44461,20.94592-10.43188L59.9817,26.45c0.52875-2.58148,2.38898-4.69531,4.89588-5.53094
		c0.39258-0.13184,0.60547-0.55664,0.47461-0.94922c-0.13184-0.39355-0.55371-0.60449-0.94922-0.47461
		c-2.49176,0.83167-4.44123,2.71875-5.40845,5.09955c-0.57959-0.61646-1.34094-1.03088-2.17651-1.12103
		c-1.1123-0.11426-2.59277,0.24707-3.33887,2.65039c-0.02441,0.07715-0.03613,0.1582-0.03418,0.23926
		c0.02539,1.16211-0.22363,2.61621-1.55469,2.94531c-1.67578,0.41602-4.50195-1.04688-5.88672-3.81738L44.6598,22.9171
		c-0.39258-0.75391-1.05566-1.30176-1.87012-1.54297c-0.81543-0.23926-1.67383-0.14258-2.41699,0.28027
		c-7.7823,4.43107-14.74425,8.39504-22.64844,12.89551c-7.37972,4.18246-13.781,1.43274-14.96289,7.21777
		C2.7588,41.78032,2.76234,41.79247,2.76045,41.8051z M64.66762,45.6378c-1.23714,3.13811-31.18842,2.33617-34.57129,2.28906
		c-2.95703-0.04102-5.91406-0.08203-8.79688-0.10156c-6.18933-0.0437-12.89621-2.4742-15.45135-4.24567
		c4.34991,1.46368,8.77917,2.20758,13.26092,2.20758c7.87439,0,11.14872-1.89982,15.89453-2.45703l6.28906-0.7243v2.09344
		c0,0.63086,0.2627,1.24316,0.71973,1.67773c0.43457,0.41309,0.99512,0.63574,1.58984,0.63574
		c0.04102,0,0.08105-0.00098,0.12207-0.00293l13.73438-0.70508c0.66699-0.03418,1.28613-0.35547,1.69922-0.88086
		c0.41309-0.52441,0.5791-1.20215,0.45508-1.8584l-0.56598-3.00446l3.20752-0.36945
		C64.40529,44.55357,64.99414,44.81096,64.66762,45.6378z M57.55244,40.7332l0.58588,3.11066
		c0.04492,0.2334-0.01172,0.46582-0.15918,0.65332s-0.36035,0.29688-0.59766,0.30957l-13.7334,0.70508
		c-0.24707,0.01074-0.43945-0.06836-0.60254-0.22266c-0.16309-0.15527-0.25293-0.36426-0.25293-0.58984v-2.26624L57.55244,40.7332z
		 M60.48988,34.14268l-2.43848,1.74316l-2.14941-1.98242c1.45215-0.51855,2.71387-1.4541,3.77344-2.79492L60.48988,34.14268z
		 M18.46547,35.85362l5.98285-3.40649l0.81207,1.33813c0.21684,0.35741,0.67915,0.46531,1.03027,0.25293
		c0.35449-0.21582,0.46777-0.67676,0.25293-1.03027l-0.79102-1.30341l3.14642-1.7915l0.78033,1.29901
		c0.2167,0.36117,0.68272,0.46757,1.02832,0.25684c0.35547-0.21289,0.4707-0.67383,0.25684-1.02832l-0.76251-1.26941
		l3.22681-1.83728l0.45074,0.74927c0.21591,0.35834,0.67953,0.46741,1.0293,0.25586c0.35449-0.21387,0.46973-0.67383,0.25586-1.0293
		l-0.43207-0.7182l6.38129-3.63336c0.38477-0.21875,0.83008-0.27051,1.25-0.14551c0.41992,0.12402,0.76172,0.40723,0.96484,0.79688
		l1.33887,2.56348c1.55762,3.11914,5.02832,5.22852,7.58301,4.5918c0.82324-0.20313,2.71777-1.03027,2.69629-4.30566
		c0.4707-1.42383,1.13184-1.55859,1.71191-1.49316c0.84473,0.08984,1.57813,0.76855,1.82422,1.6875l0.68439,2.5495
		c-1.26965,2.0625-2.87427,3.24182-4.90704,3.58234c-0.28223,0.04688-0.5127,0.25098-0.59473,0.52539s0,0.57129,0.20996,0.76563
		l3.60742,3.32617c0.14355,0.13086,0.3252,0.19824,0.50879,0.19824c0.15234,0,0.30469-0.0459,0.43652-0.13965l2.47992-1.77301
		l0.81989,3.05426l-3.69037,0.42499c-0.00568,0.00098-0.01099-0.00128-0.01666-0.00018
		c-0.00269,0.00049-0.00458,0.00238-0.0072,0.00293c-22.85209,2.73434-24.00467,2.51936-27.50647,3.50586
		c-9.00977,2.52832-17.55664,2.13574-26.10156-1.20313C5.87608,37.67084,11.12625,40.014,18.46547,35.85362z"/></svg>