<svg id="SvgjsSvg1001" width="288" height="288" xmlns="http://www.w3.org/2000/svg" version="1.1" xmlns:xlink="http://www.w3.org/1999/xlink" xmlns:svgjs="http://svgjs.com/svgjs"><defs id="SvgjsDefs1002"></defs><g id="SvgjsG1008" transform="matrix(0.9167,0,0,0.9167,11.995200953292851,11.995200000000011)"><svg xmlns="http://www.w3.org/2000/svg" enable-background="new 0 0 128 128" viewBox="0 0 128 128" width="288" height="288"><path d="M89.9,27.8c-0.3-0.4-0.8-0.6-1.3-0.6H74.8c-0.9,0-1.7,0.7-1.8,1.7c-0.3,4.7-4.3,8.4-9,8.4s-8.7-3.7-9-8.4
		c-0.1-0.9-0.8-1.7-1.8-1.7H39.5c0,0,0,0,0,0c-0.4,0-0.9,0.2-1.3,0.5L18.7,47.1c-0.7,0.7-0.7,1.8,0,2.5l15.1,15.1
		c0.7,0.7,1.8,0.7,2.5,0l1.4-1.4V99c0,1,0.8,1.8,1.8,1.8h49.1c1,0,1.8-0.8,1.8-1.8V63.4l1.3,1.3c0.7,0.7,1.8,0.7,2.5,0l15.1-15.1
		c0.7-0.7,0.7-1.8,0-2.5L89.9,27.8z M92.9,60.9l-3.1-3.1c-0.5-0.5-1.3-0.7-2-0.4c-0.7,0.3-1.1,0.9-1.1,1.7v38.2H41.3V59
		c0-0.7-0.4-1.4-1.1-1.7s-1.4-0.1-2,0.4l-3.2,3.2L22.5,48.4l17.6-17.6h11.5C52.9,36.5,58,40.8,64,40.8c6,0,11.2-4.3,12.3-10.1h11.5
		l17.6,17.6L92.9,60.9z" fill="#000000" class="color000 svgShape"></path></svg></g></svg>