<?xml version="1.0" standalone="no"?>
<!DOCTYPE svg PUBLIC "-//W3C//DTD SVG 20010904//EN"
 "http://www.w3.org/TR/2001/REC-SVG-20010904/DTD/svg10.dtd">
<svg version="1.0" xmlns="http://www.w3.org/2000/svg"
 width="480.000000pt" height="507.000000pt" viewBox="0 0 480.000000 507.000000"
 preserveAspectRatio="xMidYMid meet">
<metadata>
Created by potrace 1.16, written by Peter Selinger 2001-2019
</metadata>
<g transform="translate(0.000000,507.000000) scale(0.100000,-0.100000)"
fill="#000000" stroke="none">
<path d="M1805 4951 c-11 -5 -28 -18 -39 -30 -10 -11 -35 -24 -55 -27 -37 -7
-103 -33 -406 -164 -609 -263 -630 -273 -700 -346 -58 -59 -261 -407 -401
-684 -65 -129 -137 -270 -161 -314 -61 -112 -57 -160 20 -210 15 -10 24 -23
20 -30 -3 -6 -3 -8 2 -4 4 4 14 0 22 -10 8 -9 12 -11 8 -4 -10 20 9 14 25 -8
8 -11 20 -20 27 -20 7 0 13 -5 13 -11 0 -6 7 -8 16 -5 8 3 12 2 9 -4 -3 -6 2
-10 12 -10 24 -1 95 -45 86 -54 -4 -4 1 -4 11 0 13 5 17 4 13 -3 -5 -7 0 -9
12 -6 12 3 20 -2 24 -16 3 -12 12 -21 20 -21 24 0 167 -69 167 -80 0 -6 5 -8
10 -5 13 8 52 -4 45 -15 -3 -4 4 -10 14 -13 14 -3 18 -1 14 9 -4 10 2 11 25 4
29 -8 33 -5 67 38 20 26 42 47 48 47 7 0 11 8 9 16 -1 9 6 23 15 30 17 13 17
13 3 -6 -14 -19 -14 -19 2 -6 10 7 16 17 13 21 -7 11 63 88 94 103 14 7 25 19
23 26 -2 9 3 11 13 7 9 -3 13 -2 10 4 -3 5 3 14 14 19 30 17 41 -6 72 -161 33
-158 53 -431 45 -578 -3 -47 -8 -148 -12 -225 -3 -77 -8 -152 -9 -166 -4 -30
-12 -346 -20 -744 -3 -148 -10 -380 -15 -515 -26 -696 -29 -651 34 -692 20
-13 36 -28 36 -35 0 -7 7 -10 15 -7 8 4 21 2 28 -4 20 -17 67 -23 67 -9 0 8 3
8 9 -1 4 -7 12 -12 17 -11 5 1 11 1 14 0 41 -16 2083 -22 2185 -7 33 5 68 8
78 8 9 0 17 4 17 10 0 7 5 6 14 -1 11 -10 16 -9 23 2 11 21 49 26 45 7 -2 -8
11 2 30 23 l33 39 -5 113 c-3 62 -2 111 2 109 8 -5 2 55 -6 64 -3 3 0 12 7 20
10 13 9 14 -1 8 -9 -6 -11 0 -8 21 3 15 1 56 -3 91 -4 34 -5 64 -3 67 10 9 11
55 2 55 -6 0 -5 11 0 26 6 14 7 23 2 21 -4 -3 -7 44 -7 103 0 59 -3 106 -7
103 -5 -2 -4 6 0 19 7 20 8 43 3 58 -6 17 -7 99 -1 95 3 -2 4 9 2 26 -2 16 -9
29 -16 29 -6 0 -4 5 4 10 9 6 11 13 5 18 -10 7 -15 83 -5 77 3 -2 6 16 6 40 0
24 -4 41 -9 38 -5 -3 -4 3 2 14 7 14 7 23 -1 31 -9 9 -9 12 0 12 7 0 12 5 12
11 0 5 -3 8 -8 5 -7 -4 -8 73 -3 174 2 25 2 50 1 55 -1 6 -1 40 -1 78 1 47 -3
67 -12 67 -8 0 -7 4 3 11 10 7 11 12 3 15 -7 3 -9 14 -4 32 8 27 7 79 -2 117
-2 11 0 25 4 31 6 7 3 16 -6 24 -13 11 -13 15 -3 22 10 6 10 10 1 16 -21 13
-33 492 -17 684 5 62 11 89 22 93 11 4 12 8 3 19 -9 10 -8 15 4 20 8 3 15 10
15 16 0 6 -4 9 -9 6 -5 -4 -7 3 -4 14 3 11 10 17 17 13 6 -4 5 0 -2 9 -9 12
-10 18 -2 23 6 4 9 13 6 21 -3 8 -2 14 2 14 4 0 8 8 9 18 9 98 28 181 46 199
9 10 23 13 36 8 25 -8 128 -106 160 -152 37 -54 94 -114 123 -129 16 -8 27
-19 25 -25 -1 -6 6 -13 16 -14 9 -2 17 1 17 6 0 6 6 7 12 3 21 -13 47 -11 53
4 3 9 13 12 25 9 11 -3 18 -2 15 3 -2 4 28 22 68 40 39 18 73 31 73 29 1 -2
11 4 22 14 12 11 25 16 31 13 5 -4 13 -1 17 5 5 8 2 10 -7 5 -8 -4 -5 0 6 8
11 9 26 14 34 11 9 -3 12 -3 8 1 -9 9 62 53 86 54 11 0 15 4 11 12 -5 8 -2 9
9 5 10 -3 17 -2 17 3 0 6 7 10 15 10 8 0 14 6 13 13 -2 7 5 11 17 9 11 -2 17
-1 13 4 -10 9 22 33 45 34 10 0 16 4 13 9 -4 5 -1 11 6 13 21 7 11 93 -15 135
-13 21 -97 181 -185 355 -89 175 -182 349 -207 388 -25 39 -45 72 -45 75 0 2
-28 51 -62 107 -106 172 -157 210 -453 336 -141 60 -534 229 -655 282 -36 15
-81 31 -100 35 -19 4 -51 21 -71 37 -43 34 -33 34 -249 -2 -200 -35 -450 -33
-654 3 -163 29 -162 29 -191 18z m-81 -1143 c23 -33 20 -76 -11 -136 -24 -48
-83 -112 -126 -137 -26 -15 -35 -106 -13 -125 13 -10 24 -11 44 -4 25 9 42 30
115 149 17 26 47 56 73 71 38 22 54 26 100 22 59 -5 91 -26 81 -53 -6 -14 -9
-14 -36 0 -64 33 -135 6 -171 -64 -24 -49 -27 -119 -5 -128 29 -10 89 63 114
139 13 38 30 51 51 38 10 -6 9 -20 -4 -72 -19 -76 -20 -94 -5 -103 18 -12 56
33 99 116 45 86 80 118 140 126 47 7 90 -17 90 -48 0 -34 -19 -59 -45 -59 -22
0 -23 3 -18 35 5 31 3 35 -16 35 -44 0 -101 -84 -101 -150 0 -30 30 -60 61
-60 63 0 111 42 154 133 31 67 78 107 134 114 57 8 91 -16 91 -63 0 -70 -43
-104 -130 -104 -55 0 -64 -15 -34 -58 34 -49 128 -18 174 57 14 23 28 41 32
41 31 0 -41 -115 -89 -143 -66 -38 -165 -17 -179 38 -8 31 -15 31 -45 -1 -57
-61 -143 -73 -191 -27 -15 15 -28 33 -28 40 0 20 -9 16 -37 -18 -46 -55 -107
-62 -119 -13 -3 13 -8 24 -9 24 -2 0 -17 -13 -33 -30 -21 -21 -40 -30 -63 -30
-34 0 -69 24 -69 47 0 19 -17 16 -32 -5 -19 -27 -52 -42 -92 -42 -45 0 -66 29
-66 92 l0 47 -32 -10 c-41 -11 -129 -12 -147 0 -25 16 -2 29 43 24 52 -6 105
2 129 20 9 6 26 46 38 87 46 168 134 258 183 188z m1080 -194 c0 -16 -11 -66
-24 -112 -27 -94 -21 -113 27 -93 36 15 67 63 94 148 29 90 39 102 67 84 10
-6 8 -26 -13 -95 -27 -96 -31 -131 -14 -142 17 -10 68 47 80 91 40 152 56 180
85 141 12 -17 14 -17 36 -2 34 24 85 20 113 -9 29 -28 33 -80 11 -143 -8 -23
-12 -43 -8 -46 17 -9 53 16 79 56 20 32 28 39 31 25 9 -44 -83 -129 -124 -113
-8 3 -31 -6 -52 -20 -36 -25 -78 -29 -132 -13 -11 3 -19 -19 -35 -96 -20 -95
-22 -100 -48 -103 -32 -4 -32 -3 -7 108 26 113 26 112 -10 92 -34 -19 -58 -11
-75 26 -10 23 -25 30 -25 12 0 -17 -63 -50 -95 -50 -42 0 -55 16 -55 69 0 49
46 201 64 213 19 13 31 2 30 -28z"/>
<path d="M3143 3595 c-37 -16 -46 -30 -67 -110 -18 -69 -11 -85 41 -85 23 0
41 8 57 25 39 42 60 147 34 173 -15 15 -25 15 -65 -3z"/>
</g>
</svg>
